<svg xmlns="http://www.w3.org/2000/svg" viewBox="0 0 64 64" role="img" aria-label="VoyageManager">
  <defs>
    <linearGradient id="g" x1="0" y1="0" x2="1" y2="1">
      <stop offset="0" stop-color="#3b82f6"/>
      <stop offset="1" stop-color="#0891b2"/>
    </linearGradient>
  </defs>
  <rect width="64" height="64" rx="14" fill="url(#g)"/>
  <path fill="#fff" d="M52 30.5c0-1.8-1.5-3.3-3.3-3.3h-9.9L28.6 10.5a1.7 1.7 0 0 0-1.4-.8h-4.3c-1.1 0-1.9 1.1-1.6 2.2l4.3 15.3h-9.3l-3.7-5a1.7 1.7 0 0 0-1.3-.7H8.9c-1.1 0-1.9 1.1-1.6 2.2l2.6 8.8-2.6 8.8c-.3 1.1.5 2.2 1.6 2.2h2.4c.5 0 1-.3 1.3-.7l3.7-5h9.3l-4.3 15.3c-.3 1.1.5 2.2 1.6 2.2h4.3c.6 0 1.1-.3 1.4-.8l10.2-16.7h9.9c1.8 0 3.3-1.5 3.3-3.3z"/>
</svg>
